<svg viewBox="0 0 32 32" fill="none" xmlns="http://www.w3.org/2000/svg">
  <rect width="32" height="32" rx="9.375" fill="#000D43"/>
  <rect width="32" height="32" rx="9.375" fill="url(#a)"/>
  <rect width="32" height="32" rx="9.375" fill="url(#b)"/>
  <path d="M5.801 6.47h19.726v19.708H5.801V6.471Z" fill="url(#c)"/>
  <path fill-rule="evenodd" clip-rule="evenodd" d="m14.34 22.306-9.652 5.221 5.233-15.972L3.5 6.738l18.029-1.61c1.284-.114 2.688.016 3.837.634 1.443.776 2.236 2.187 2.137 3.816-.085 1.413-.639 2.456-1.53 3.4.47.981.426 2.26.104 3.24-.517 1.576-1.373 2.998-2.695 4.027-1.322 1.029-2.919 1.515-4.57 1.662l-4.472.402v-.003Z" fill="#B5DFE6"/>
  <path fill-rule="evenodd" clip-rule="evenodd" d="M25.218 15.935c-.46 1.403-1.214 2.678-2.391 3.594-1.178.917-2.621 1.344-4.096 1.476l-4.658.417-7.82 4.229 4.728-14.432-5.056-3.793 15.684-1.4c1.101-.099 2.344 0 3.329.53 1.191.642 1.737 1.745 1.663 2.965-.092 1.512-.83 2.464-1.803 3.338.753.72.722 2.156.42 3.075v.001Z" fill="#000239"/>
  <path d="M21.765 7.766c1.64-.146 3.62.272 2.973 2.245-.244.743-.616 1.363-1.118 1.858-.502.496-1.038.86-1.608 1.092 1.405.098 1.89 1.383 1.546 2.43-.4 1.214-1 2.135-1.805 2.76-.804.626-1.863.997-3.178 1.115l-5.016.45-4.28 2.314 3.753-11.456-2.418-1.814 11.15-.996v.002Zm-1.86 2.693-3.42.306-.606 1.845 3.42-.307c.805-.073 1.33-.48 1.573-1.224.135-.402-.024-.705-.967-.62Zm-.856 4.392-4.025.36-.624 1.903 4.024-.36c.805-.073 1.297-.492 1.573-1.225.159-.421-.023-.761-.948-.678Z" fill="#fff"/>
  <path fill-rule="evenodd" clip-rule="evenodd" d="m12.488 13.966 7.267-.653-.02.008 2.237.158c.97.069 1.335.944 1.069 1.757-.31.95-.81 1.876-1.63 2.513-.82.638-1.855.909-2.886 1.001l-5.132.46-3.188 1.725 2.283-6.97Zm6.51.368c.44-.04.962-.018 1.302.29.322.289.35.701.206 1.082-.343.915-1.008 1.474-2.032 1.566l-4.836.433.978-2.978 4.382-.393Z" fill="#B5DFE6"/>
  <defs>
    <radialGradient id="a" cx="0" cy="0" r="1" gradientUnits="userSpaceOnUse" gradientTransform="matrix(0 16 -16 0 16 16)">
      <stop stop-color="#0075FF"/>
      <stop offset="1" stop-color="#0075FF" stop-opacity="0"/>
    </radialGradient>
    <radialGradient id="b" cx="0" cy="0" r="1" gradientUnits="userSpaceOnUse" gradientTransform="rotate(180 8 8) scale(16)">
      <stop stop-color="#70B3FF"/>
      <stop offset="1" stop-color="#0075FF" stop-opacity="0"/>
    </radialGradient>
    <radialGradient id="c" cx="0" cy="0" r="1" gradientUnits="userSpaceOnUse" gradientTransform="matrix(0 9.85367 -9.86301 0 15.664 16.324)">
      <stop offset=".5" stop-color="#70B3FF"/>
      <stop offset="1" stop-color="#70B3FF" stop-opacity="0"/>
    </radialGradient>
  </defs>
</svg>
